<svg xmlns="http://www.w3.org/2000/svg" width="24" height="24" viewBox="0 0 24 24"><defs><style>.a{fill:none;}.b{fill:#24c4b2;}</style></defs><rect class="a" width="24" height="24"/><g transform="translate(2 2)"><path class="b" d="M10,20A10,10,0,1,1,20,10,10,10,0,0,1,10,20Zm0-2a8,8,0,1,0-8-8A8,8,0,0,0,10,18Zm3.242-7.111a3,3,0,0,1-2.353,2.353l-3.545.709a1.1,1.1,0,0,1-1.294-1.294l.709-3.545A3,3,0,0,1,9.111,6.758l3.545-.709a1.1,1.1,0,0,1,1.294,1.294ZM8.719,9.5l-.444,2.222,2.222-.444a1,1,0,0,0,.785-.785l.444-2.222L9.5,8.719A1,1,0,0,0,8.719,9.5Z"/></g></svg>