<svg xmlns="http://www.w3.org/2000/svg" width="82.029" height="82.096" viewBox="0 0 82.029 82.096"><defs><style>.a{opacity:0.1;}.b{fill:#e6e6e6;opacity:0.69;}.c{fill:#efefef;}.d{fill:#292929;}</style></defs><g class="a"><g transform="translate(0 0)"><g transform="translate(0 0)"><path class="b" d="M41,0h41V41a41,41,0,0,1-41,41h0A41,41,0,0,1,41,0Z" transform="translate(0 0.082)"/><path class="c" d="M21.513,70.68C19.05,55.97,22.125,37.771,39.4,20.24S90.793.286,90.793.286V40.91c0,22.729-18.145,41.466-40.875,41.466-17.906.345-27.562-11.888-30.4-15.908C18.08,64.433,19.325,68.336,21.513,70.68Z" transform="translate(-8.764 -0.286)"/><path class="d" d="M71.085-54.46a39.559,39.559,0,0,1-.479,6.465H22.116q.6,7.184,5.029,11.254a15.505,15.505,0,0,0,10.9,4.071c5.628,0,9.789-2.185,12.551-6.669C69.009-39.448,69-39.431,69-39.431h0A30.1,30.1,0,0,1,58.394-24.947Q50.252-18.781,38.4-18.781a34.6,34.6,0,0,1-17.181-4.25A29.916,29.916,0,0,1,9.365-35.064a36.869,36.869,0,0,1-4.25-17.959A37.555,37.555,0,0,1,9.305-71.1,29.239,29.239,0,0,1,21.039-83.075,35.15,35.15,0,0,1,38.4-87.265a34.871,34.871,0,0,1,16.941,4.071A28.649,28.649,0,0,1,66.954-71.641,34.963,34.963,0,0,1,71.085-54.46ZM53.724-59.249a13.293,13.293,0,0,0-4.669-10.356A16.542,16.542,0,0,0,37.92-73.5a15.215,15.215,0,0,0-10.476,3.771,16.582,16.582,0,0,0-5.208,10.476Z" transform="translate(1.43 100.098)"/></g></g></g></svg>