<svg xmlns="http://www.w3.org/2000/svg" width="24" height="24" viewBox="0 0 24 24"><defs><style>.a{fill:none;}.b{fill:#24c4b2;}</style></defs><g transform="translate(0 -0.41)"><rect class="a" width="24" height="24" transform="translate(0 0.41)"/><g transform="translate(2 2)"><path class="b" d="M12.506,17.6A8.009,8.009,0,0,0,17.938,11H14.962a12.849,12.849,0,0,1-2.456,6.6Zm.449-6.6H7.045A11.284,11.284,0,0,0,10,17.54,11.284,11.284,0,0,0,12.955,11Zm-.449-8.6A12.849,12.849,0,0,1,14.962,9h2.976a8.009,8.009,0,0,0-5.432-6.6ZM12.955,9A11.285,11.285,0,0,0,10,2.46,11.285,11.285,0,0,0,7.045,9ZM7.494,17.6A12.849,12.849,0,0,1,5.038,11H2.062a8.009,8.009,0,0,0,5.432,6.6Zm0-15.2A8.009,8.009,0,0,0,2.062,9H5.038A12.85,12.85,0,0,1,7.494,2.4ZM10,20A10,10,0,1,1,20,10,10,10,0,0,1,10,20Z"/></g></g></svg>