<svg xmlns="http://www.w3.org/2000/svg" xmlns:xlink="http://www.w3.org/1999/xlink" width="212.252" height="33.949" viewBox="0 0 212.252 33.949"><defs><style>.a{fill:url(#a);}.b{fill:url(#b);}.c{fill:#fff;}</style><linearGradient id="a" y1="0.5" x2="1" y2="0.5" gradientUnits="objectBoundingBox"><stop offset="0" stop-color="#1eb2a8"/><stop offset="1" stop-color="#1a9b75"/></linearGradient><linearGradient id="b" x1="0.5" x2="0.5" y2="1" gradientUnits="objectBoundingBox"><stop offset="0" stop-color="#24c4b2"/><stop offset="1" stop-color="#1dafa2"/></linearGradient></defs><g transform="translate(-2212 -2043)"><g transform="translate(2212 2043)"><path d="M453.435-95.58V-81.9a2.625,2.625,0,0,0,.669,2.007,3.287,3.287,0,0,0,2.255.62h3.221v5.848h-4.361q-8.772,0-8.772-8.525V-95.58h-3.271v-5.7h3.271v-6.046h6.988v6.046h6.146v5.7Z" transform="translate(-270.769 107.326)"/><path d="M16.978-114.7v33.915H10.7V-114.7Z" transform="translate(24.531 114.7)"/><path d="M506.4-59.338a13.869,13.869,0,0,1-5.867-1.2,10.392,10.392,0,0,1-4.112-3.247,8.3,8.3,0,0,1-1.659-4.541h6.781a3.761,3.761,0,0,0,1.515,2.588,5.216,5.216,0,0,0,3.294,1.025,5.057,5.057,0,0,0,3.006-.781,2.374,2.374,0,0,0,1.082-2,2.111,2.111,0,0,0-1.323-1.977,24.633,24.633,0,0,0-4.208-1.44,35.271,35.271,0,0,1-4.882-1.514,8.48,8.48,0,0,1-3.27-2.392,6.485,6.485,0,0,1-1.371-4.345,7.085,7.085,0,0,1,1.275-4.1,8.58,8.58,0,0,1,3.655-2.929,13.524,13.524,0,0,1,5.6-1.074,11.327,11.327,0,0,1,7.6,2.417,9,9,0,0,1,3.126,6.518H510.2a3.558,3.558,0,0,0-1.323-2.563,4.865,4.865,0,0,0-3.15-.952,4.905,4.905,0,0,0-2.813.684,2.188,2.188,0,0,0-.986,1.9,2.239,2.239,0,0,0,1.347,2.075,20.7,20.7,0,0,0,4.184,1.44,35.133,35.133,0,0,1,4.761,1.514,8.419,8.419,0,0,1,3.246,2.417,6.7,6.7,0,0,1,1.419,4.321,7.241,7.241,0,0,1-1.275,4.2,8.416,8.416,0,0,1-3.655,2.9A13.667,13.667,0,0,1,506.4-59.338Z" transform="translate(-304.631 93.287)"/><path d="M370.7-88.486a10.45,10.45,0,0,1,7.83,3.059q2.985,3.059,2.985,8.54v16.294h-6.851V-75.958a7.03,7.03,0,0,0-1.615-4.967,5.72,5.72,0,0,0-4.4-1.737,5.861,5.861,0,0,0-4.478,1.737,6.963,6.963,0,0,0-1.639,4.967v15.364h-6.851v-27.5h6.851v3.377a9.465,9.465,0,0,1,3.5-2.765A10.824,10.824,0,0,1,370.7-88.486Z" transform="translate(-210.435 94.509)"/><path d="M156.521-88.486a10.835,10.835,0,0,1,8.027,3.059q3.05,3.059,3.05,8.54v16.294h-6.831V-75.958a6.786,6.786,0,0,0-1.61-4.869,5.78,5.78,0,0,0-4.391-1.688,5.861,5.861,0,0,0-4.416,1.688,6.723,6.723,0,0,0-1.635,4.869v15.364h-6.831V-75.958a6.786,6.786,0,0,0-1.61-4.869,5.78,5.78,0,0,0-4.391-1.688,5.925,5.925,0,0,0-4.465,1.688,6.723,6.723,0,0,0-1.635,4.869v15.364h-6.831v-27.5h6.831v3.279a9.1,9.1,0,0,1,3.391-2.692,10.553,10.553,0,0,1,4.562-.979,11.707,11.707,0,0,1,5.66,1.346A9.417,9.417,0,0,1,147.25-83.3a9.8,9.8,0,0,1,3.83-3.768A10.879,10.879,0,0,1,156.521-88.486Z" transform="translate(-51.908 94.509)"/><path d="M61.066-76.279a16.111,16.111,0,0,1-.2,2.633H41.122a6.716,6.716,0,0,0,2.048,4.584A6.315,6.315,0,0,0,47.607-67.4a5.575,5.575,0,0,0,5.413-3.267h7.363A12.305,12.305,0,0,1,55.9-64.259a13.1,13.1,0,0,1-8.143,2.511,14.092,14.092,0,0,1-7-1.731,12.184,12.184,0,0,1-4.828-4.9A15.016,15.016,0,0,1,34.2-75.694,15.3,15.3,0,0,1,35.9-83.057a11.909,11.909,0,0,1,4.779-4.876,14.316,14.316,0,0,1,7.071-1.707,14.2,14.2,0,0,1,6.9,1.658,11.668,11.668,0,0,1,4.73,4.706A14.24,14.24,0,0,1,61.066-76.279ZM54-78.23a5.414,5.414,0,0,0-1.9-4.218,6.737,6.737,0,0,0-4.535-1.585A6.2,6.2,0,0,0,43.292-82.5a6.754,6.754,0,0,0-2.121,4.267Z" transform="translate(8.636 95.662)"/><path d="M61.066-76.279a16.111,16.111,0,0,1-.2,2.633H41.122a6.716,6.716,0,0,0,2.048,4.584A6.315,6.315,0,0,0,47.607-67.4a5.575,5.575,0,0,0,5.413-3.267h7.363A12.305,12.305,0,0,1,55.9-64.259a13.1,13.1,0,0,1-8.143,2.511,14.092,14.092,0,0,1-7-1.731,12.184,12.184,0,0,1-4.828-4.9A15.016,15.016,0,0,1,34.2-75.694,15.3,15.3,0,0,1,35.9-83.057a11.909,11.909,0,0,1,4.779-4.876,14.316,14.316,0,0,1,7.071-1.707,14.2,14.2,0,0,1,6.9,1.658,11.668,11.668,0,0,1,4.73,4.706A14.24,14.24,0,0,1,61.066-76.279ZM54-78.23a5.414,5.414,0,0,0-1.9-4.218,6.737,6.737,0,0,0-4.535-1.585A6.2,6.2,0,0,0,43.292-82.5a6.754,6.754,0,0,0-2.121,4.267Z" transform="translate(82.836 95.662)"/><g transform="translate(0 0.002)"><g transform="translate(0 0)"><g transform="translate(0 0)"><path class="a" d="M16.938,0H33.876V16.938A16.938,16.938,0,0,1,16.938,33.876h0A16.938,16.938,0,1,1,16.938,0Z" transform="translate(0 0.034)"/><path class="b" d="M19.981,29.365c-1.017-6.077.253-13.595,7.39-20.837S48.6.286,48.6.286V17.068A17.012,17.012,0,0,1,31.715,34.2a14.96,14.96,0,0,1-12.557-6.572C18.562,26.784,19.077,28.4,19.981,29.365Z" transform="translate(-14.714 -0.286)"/><path class="c" d="M32.367-73.713a16.342,16.342,0,0,1-.2,2.671H12.138a6.812,6.812,0,0,0,2.077,4.649,6.405,6.405,0,0,0,4.5,1.682A5.652,5.652,0,0,0,23.9-67.467c7.609-.045,7.606-.038,7.606-.038h0a12.432,12.432,0,0,1-4.382,5.983,13.284,13.284,0,0,1-8.26,2.547,14.293,14.293,0,0,1-7.1-1.756,12.358,12.358,0,0,1-4.9-4.971A15.23,15.23,0,0,1,5.115-73.12a15.514,15.514,0,0,1,1.731-7.468,12.078,12.078,0,0,1,4.847-4.946,14.52,14.52,0,0,1,7.171-1.731,14.405,14.405,0,0,1,7,1.682,11.835,11.835,0,0,1,4.8,4.773A14.443,14.443,0,0,1,32.367-73.713ZM25.2-75.692a5.491,5.491,0,0,0-1.929-4.278,6.834,6.834,0,0,0-4.6-1.607,6.285,6.285,0,0,0-4.328,1.558,6.85,6.85,0,0,0-2.151,4.328Z" transform="translate(-2.411 92.566)"/></g></g></g></g></g></svg>