<svg xmlns="http://www.w3.org/2000/svg" width="24" height="24" viewBox="0 0 24 24"><defs><style>.a{fill:none;}.b{fill:#24c4b2;}</style></defs><g transform="translate(0 -0.229)"><rect class="a" width="24" height="24" transform="translate(0 0.229)"/><g transform="translate(2 4)"><path class="b" d="M17.963,3.614A2,2,0,0,0,16,2H4A2,2,0,0,0,2.037,3.614,11.3,11.3,0,0,0,10,7,11.3,11.3,0,0,0,17.963,3.614ZM18,6.209A12.882,12.882,0,0,1,10,9,12.882,12.882,0,0,1,2,6.209V12a2,2,0,0,0,2,2H16a2,2,0,0,0,2-2V6.209ZM4,0H16a4,4,0,0,1,4,4v8a4,4,0,0,1-4,4H4a4,4,0,0,1-4-4V4A4,4,0,0,1,4,0Z"/></g></g></svg>