<svg xmlns="http://www.w3.org/2000/svg" xmlns:xlink="http://www.w3.org/1999/xlink" width="237" height="356" viewBox="0 0 237 356"><defs><style>.a{fill:#fff;stroke:#707070;}.b{opacity:0.1;clip-path:url(#a);}.c{fill:url(#b);}</style><clipPath id="a"><rect class="a" width="237" height="356" transform="translate(1203 472)"/></clipPath><linearGradient id="b" x1="0.5" x2="0.5" y2="1" gradientUnits="objectBoundingBox"><stop offset="0" stop-color="#56efc1"/><stop offset="0.46" stop-color="#44cba2"/><stop offset="1" stop-color="#6bb8a1"/></linearGradient></defs><g class="b" transform="translate(-1203 -472)"><g transform="translate(272.865 1729.785) rotate(-72)"><path class="c" d="M12,0H196.7a12,12,0,0,1,12,12V196.868a12,12,0,0,1-12,12H0a0,0,0,0,1,0,0V12A12,12,0,0,1,12,0Z" transform="translate(1457.406 579)"/><path class="c" d="M12,0H196.7a12,12,0,0,1,12,12V208.868a0,0,0,0,1,0,0H12a12,12,0,0,1-12-12V12A12,12,0,0,1,12,0Z" transform="translate(1228 579)"/><path class="c" d="M12,0H208.7a0,0,0,0,1,0,0V196.868a12,12,0,0,1-12,12H12a12,12,0,0,1-12-12V12A12,12,0,0,1,12,0Z" transform="translate(1228 805.407)"/><path class="c" d="M0,0H196.7a12,12,0,0,1,12,12V196.868a12,12,0,0,1-12,12H12a12,12,0,0,1-12-12V0A0,0,0,0,1,0,0Z" transform="translate(1457.406 805.407)"/></g></g></svg>