<svg xmlns="http://www.w3.org/2000/svg" width="24" height="24" viewBox="0 0 24 24"><defs><style>.a{fill:none;}.b{fill:#24c4b2;}</style></defs><g transform="translate(0 0.181)"><rect class="a" width="24" height="24" transform="translate(0 -0.181)"/><g transform="translate(2.189 2)"><path class="b" d="M2.977,8.629l1.811-.906A4,4,0,0,0,7,4.146V3A4,4,0,0,0,3-1,3.81,3.81,0,0,0-.773,3.344,17.762,17.762,0,0,0,14.656,18.773,3.811,3.811,0,0,0,19,15a4,4,0,0,0-4-4H13.854a4,4,0,0,0-3.578,2.211l-.906,1.812a15.477,15.477,0,0,1-3.664-2.73A15.475,15.475,0,0,1,2.977,8.629Zm9.088,5.476A2,2,0,0,1,13.854,13H15a2,2,0,0,1,2,2,1.81,1.81,0,0,1-2.064,1.793,17.441,17.441,0,0,1-3.743-.944ZM1.207,3.064A1.81,1.81,0,0,1,3,1,2,2,0,0,1,5,3V4.146A2,2,0,0,1,3.894,5.935l-1.743.872A17.448,17.448,0,0,1,1.207,3.064Z" transform="translate(0.811 1)"/></g></g></svg>